<?xml version="1.0" standalone="no"?>
<!DOCTYPE svg PUBLIC "-//W3C//DTD SVG 20010904//EN"
 "http://www.w3.org/TR/2001/REC-SVG-20010904/DTD/svg10.dtd">
<svg version="1.0" xmlns="http://www.w3.org/2000/svg"
 width="260.000000pt" height="260.000000pt" viewBox="0 0 260.000000 260.000000"
 preserveAspectRatio="xMidYMid meet">
<metadata>
Created by potrace 1.11, written by Peter Selinger 2001-2013
</metadata>
<g transform="translate(0.000000,260.000000) scale(0.100000,-0.100000)"
fill="#000000" stroke="none">
<path d="M1303 2492 c-7 -4 -21 -33 -31 -63 -11 -29 -40 -106 -66 -170 -25
-64 -49 -136 -52 -160 -7 -46 -20 -79 -32 -79 -19 1 -32 20 -37 54 -6 47 -40
105 -70 117 -44 18 -166 93 -187 116 -14 15 -36 38 -47 51 -46 49 -93 15 -90
-63 1 -22 -1 -53 -4 -69 -7 -35 13 -73 67 -125 42 -41 46 -73 16 -140 -11 -24
-20 -63 -20 -87 0 -24 -4 -45 -10 -45 -5 -1 -16 -2 -22 -3 -7 -1 -20 4 -29 11
-9 8 -36 16 -60 18 -110 11 -139 15 -209 30 -96 21 -159 23 -171 4 -17 -28 1
-59 87 -140 51 -49 95 -101 105 -125 10 -23 39 -60 64 -83 25 -23 45 -48 45
-57 0 -25 -28 -27 -59 -5 -41 29 -67 26 -113 -13 -44 -38 -90 -63 -128 -68
-14 -3 -58 -15 -99 -28 -56 -19 -75 -30 -82 -48 -12 -32 -4 -44 68 -92 59 -39
67 -41 125 -39 35 1 71 6 81 11 29 15 63 2 105 -40 22 -21 53 -44 71 -51 39
-17 40 -42 1 -75 -17 -13 -48 -51 -69 -83 -34 -51 -133 -153 -213 -220 -28
-23 -29 -52 -2 -74 19 -16 116 -13 180 6 29 8 57 15 61 14 4 -1 10 0 13 1 8 3
31 8 70 14 71 13 92 18 117 31 49 26 72 -11 34 -52 -11 -12 -26 -36 -34 -55
-12 -29 -12 -41 0 -88 17 -65 10 -158 -13 -174 -8 -7 -18 -30 -21 -53 -5 -35
-2 -45 20 -67 29 -29 58 -33 77 -11 7 8 18 15 25 15 26 0 92 80 116 140 27 70
42 87 83 94 16 3 46 17 68 31 63 42 79 33 109 -58 15 -43 31 -88 37 -100 6
-12 14 -38 18 -57 3 -19 15 -53 25 -76 10 -22 21 -63 25 -90 7 -52 30 -78 71
-80 26 -1 32 11 48 96 3 19 12 48 19 65 8 16 21 59 31 95 9 36 27 85 40 110
13 25 31 61 40 81 12 28 22 37 41 37 13 0 24 -4 24 -8 0 -10 47 -28 91 -34 67
-10 78 -22 94 -101 7 -37 65 -104 120 -137 64 -40 78 -41 108 -14 34 32 35 71
2 116 -21 28 -25 44 -24 99 1 36 7 81 14 101 11 32 10 41 -6 76 -27 58 -25 74
12 74 17 0 51 -9 77 -20 28 -11 80 -22 127 -25 44 -2 97 -7 119 -9 55 -7 95
15 91 51 -1 15 -11 32 -21 38 -34 18 -118 109 -179 193 -32 45 -72 94 -87 107
-38 34 -35 51 10 74 20 10 47 27 59 38 77 65 76 65 144 39 43 -16 50 -17 93
-2 26 9 53 16 61 16 8 0 15 4 15 9 0 5 16 19 34 32 66 45 64 104 -4 124 -19 5
-41 14 -48 19 -8 4 -35 14 -61 21 -26 7 -80 34 -120 60 -75 50 -74 49 -163 29
-44 -10 -29 18 63 113 47 48 99 109 116 134 17 25 48 58 67 73 39 30 47 64 20
90 -14 15 -62 15 -86 0 -4 -3 -29 -8 -55 -11 -27 -3 -60 -12 -75 -19 -15 -8
-56 -17 -90 -20 -59 -5 -86 -8 -164 -21 -39 -6 -50 8 -58 77 -3 30 -8 69 -11
85 -4 26 3 39 50 90 34 37 57 72 61 93 9 45 -1 149 -15 166 -22 26 -65 13
-109 -35 -39 -43 -84 -71 -162 -100 -56 -21 -117 -84 -125 -127 -15 -88 -42
-78 -73 26 -13 42 -41 122 -62 177 -35 92 -55 161 -49 167 1 2 -3 13 -10 26
-12 23 -27 27 -48 14z"/>
</g>
</svg>
